<?xml version="1.0" encoding="UTF-8"?>
<svg version="1.1" xmlns="http://www.w3.org/2000/svg" width="432" height="351">
<path d="M0 0 C142.56 0 285.12 0 432 0 C432 115.83 432 231.66 432 351 C289.44 351 146.88 351 0 351 C0 235.17 0 119.34 0 0 Z " fill="#0A0619" transform="translate(0,0)"/>
<path d="M0 0 C0 60.06 0 120.12 0 182 C-46.24416569 170.43895858 -46.24416569 170.43895858 -67.20581055 164.8918457 C-70.94570335 163.90225381 -74.68664987 162.91671696 -78.42773438 161.93164062 C-80.83339186 161.29709685 -83.23899332 160.66234061 -85.64453125 160.02734375 C-87.30329033 159.58998146 -87.30329033 159.58998146 -88.99555969 159.14378357 C-90.00740829 158.87582474 -91.0192569 158.60786591 -92.06176758 158.33178711 C-92.94705643 158.09769638 -93.83234528 157.86360565 -94.74446106 157.62242126 C-96.51182584 157.1347128 -98.26066276 156.57977908 -100 156 C-100 113.1 -100 70.2 -100 26 C-79.30615444 20.25170957 -79.30615444 20.25170957 -72.64453125 18.50463867 C-71.86482971 18.29908356 -71.08512817 18.09352844 -70.28179932 17.88174438 C-67.79237261 17.22585334 -65.30247518 16.57177422 -62.8125 15.91796875 C-61.04938752 15.4543288 -59.28628552 14.99064899 -57.52319336 14.52693176 C-53.87311851 13.56727137 -50.22277873 12.60862662 -46.57226562 11.65063477 C-41.88874723 10.42138106 -37.206149 9.18865896 -32.52375793 7.95511913 C-28.90408945 7.00209743 -25.28384156 6.05129217 -21.66342163 5.10112953 C-19.93439099 4.64698054 -18.20556862 4.19203784 -16.47695923 3.73628807 C-14.08029403 3.10466587 -11.68284108 2.47612735 -9.28515625 1.84838867 C-8.57256653 1.65987839 -7.85997681 1.4713681 -7.12579346 1.27714539 C-2.22834921 0 -2.22834921 0 0 0 Z " fill="#11BEE5" transform="translate(369,69)"/>
<path d="M0 0 C48.10360899 0 48.10360899 0 56.375 6.8125 C64.07163579 14.92517016 64.29296071 23.42733085 64.15234375 34.0390625 C63.86469798 41.51785265 62.82796626 47.06849859 58 53 C55.72772946 55.00176215 53.70333897 56.64833052 51 58 C53.04307206 66.27249341 55.16552473 74.52039798 57.375 82.75 C57.67736572 83.87801025 57.97973145 85.00602051 58.29125977 86.16821289 C60.38035258 93.89006982 62.64707498 101.52473216 65.15234375 109.12109375 C66 112 66 112 66 115 C59.07 115 52.14 115 45 115 C39.81145771 97.77845537 35.24256987 80.47697134 31 63 C27.7 62.67 24.4 62.34 21 62 C21 79.49 21 96.98 21 115 C14.07 115 7.14 115 0 115 C0 77.05 0 39.1 0 0 Z " fill="#A479C2" transform="translate(70,102)"/>
<path d="M0 0 C2.19921875 1.66015625 2.19921875 1.66015625 4.19921875 4.66015625 C4.19921875 5.65015625 4.19921875 6.64015625 4.19921875 7.66015625 C4.61171875 7.26183594 5.02421875 6.86351562 5.44921875 6.453125 C12.66641268 -0.16800604 18.63748866 -1.66176986 28.3671875 -1.73828125 C31.93045412 -1.2369665 33.44135814 -0.7062377 36.19921875 1.66015625 C42.08045098 9.79553118 41.85839339 18.34794126 41.6875 27.94921875 C41.67815565 29.50433201 41.67104722 31.05946016 41.6660614 32.61459351 C41.64711867 36.67553513 41.59813163 40.73555938 41.5425415 44.79614258 C41.49107103 48.95251054 41.46848852 53.1090291 41.44335938 57.265625 C41.38999685 65.39759999 41.30216916 73.52865774 41.19921875 81.66015625 C34.92921875 81.66015625 28.65921875 81.66015625 22.19921875 81.66015625 C22.16948975 78.58598389 22.16948975 78.58598389 22.13916016 75.44970703 C22.07233734 68.68818721 21.99469692 61.92682305 21.91169167 55.16548347 C21.8616857 51.06494676 21.81535629 46.96443635 21.77734375 42.86376953 C21.74054492 38.90847426 21.69420019 34.9533968 21.64115524 30.9982872 C21.62258243 29.48720993 21.60748519 27.97608592 21.59587479 26.46493912 C21.57906122 24.35286263 21.55003954 22.24128817 21.51806641 20.12939453 C21.50474274 18.92582306 21.49141907 17.72225159 21.47769165 16.48220825 C21.4871239 13.5252275 21.4871239 13.5252275 19.19921875 11.66015625 C15.39797143 11.14180434 13.48045216 11.51606415 10.04440308 13.27655029 C6.95796856 15.39045996 6.95796856 15.39045996 6.43972778 18.64678955 C6.43306595 20.39219025 6.43306595 20.39219025 6.42626953 22.17285156 C6.4156398 22.81717133 6.40501007 23.46149109 6.39405823 24.12533569 C6.3660358 26.24711531 6.38005453 28.36640179 6.39453125 30.48828125 C6.38327955 31.96232269 6.36939821 33.43634622 6.35299683 34.91033936 C6.3169505 38.7837486 6.316586 42.65636872 6.32366943 46.52990723 C6.32458218 50.48492562 6.29172637 54.43964797 6.26171875 58.39453125 C6.2078486 66.1499145 6.19479708 73.90454703 6.19921875 81.66015625 C0.25921875 81.66015625 -5.68078125 81.66015625 -11.80078125 81.66015625 C-12.13078125 58.89015625 -12.46078125 36.12015625 -12.80078125 12.66015625 C-20.70833122 10.92055599 -20.70833122 10.92055599 -26.80078125 14.66015625 C-27.13078125 36.77015625 -27.46078125 58.88015625 -27.80078125 81.66015625 C-34.07078125 81.66015625 -40.34078125 81.66015625 -46.80078125 81.66015625 C-46.80078125 54.60015625 -46.80078125 27.54015625 -46.80078125 -0.33984375 C-40.86078125 -0.33984375 -34.92078125 -0.33984375 -28.80078125 -0.33984375 C-28.80078125 1.97015625 -28.80078125 4.28015625 -28.80078125 6.66015625 C-28.14078125 6.66015625 -27.48078125 6.66015625 -26.80078125 6.66015625 C-26.5378125 6.0465625 -26.27484375 5.43296875 -26.00390625 4.80078125 C-21.48201526 -3.24466117 -7.41114477 -3.54535936 0 0 Z " fill="#D364AD" transform="translate(321.80078125,135.33984375)"/>
<path d="M0 0 C6.79752018 4.14883128 9.99079071 10.23167456 11.82540894 17.80393982 C12.54137929 21.61245647 12.55517246 25.37670618 12.55078125 29.2421875 C12.55506638 30.09499298 12.5593515 30.94779846 12.56376648 31.82644653 C12.56947585 33.61980304 12.57003527 35.41318268 12.56567383 37.20654297 C12.56251655 39.92326093 12.58600612 42.63888516 12.61132812 45.35546875 C12.69501897 67.49424175 12.69501897 67.49424175 4.1484375 76.4375 C-2.4291309 82.06768201 -11.08307657 82.49241429 -19.390625 82.3984375 C-25.51961695 81.78553831 -30.25869738 79.53826435 -34.62890625 75.1953125 C-40.46990947 67.96091334 -41.06969995 60.66400792 -41.12109375 51.66796875 C-41.13012222 50.68057205 -41.1391507 49.69317535 -41.14845276 48.67585754 C-41.16290808 46.59407561 -41.17183021 44.51224874 -41.17553711 42.43041992 C-41.18742522 39.26988024 -41.23665169 36.11129991 -41.28710938 32.95117188 C-41.29657625 30.91928027 -41.30381002 28.88737678 -41.30859375 26.85546875 C-41.32812607 25.92284714 -41.34765839 24.99022552 -41.36778259 24.02934265 C-41.31617682 16.40780717 -39.21217962 9.78384006 -33.93577576 4.11247253 C-25.30584402 -3.82224661 -10.60790245 -4.69662857 0 0 Z " fill="#CF62AD" transform="translate(247.75,135.9375)"/>
<path d="M0 0 C6.02804297 3.6809319 9.67742401 8.94620131 11.69596863 15.73191833 C12.13971715 17.8838706 12.27205687 19.84357349 12.30200195 22.03930664 C12.32125481 23.27693504 12.32125481 23.27693504 12.34089661 24.53956604 C12.34828354 25.42498581 12.35567047 26.31040558 12.36328125 27.22265625 C12.371353 28.14533798 12.37942474 29.06801971 12.38774109 30.0186615 C12.40156155 31.97295262 12.4122928 33.92726767 12.42016602 35.8815918 C12.43164985 37.8647375 12.45204418 39.84785318 12.48168945 41.83081055 C12.8424526 65.977756 12.8424526 65.977756 5.75 74.75 C-2.83326468 81.49399368 -10.49974358 82.79617106 -21.203125 81.5390625 C-27.63494069 80.37958552 -32.48908883 78.10703537 -36.3828125 72.73046875 C-40.83782218 65.25878109 -41.03944814 57.80078779 -41.11328125 49.29296875 C-41.121353 48.39435623 -41.12942474 47.49574371 -41.13774109 46.56990051 C-41.15150935 44.67642098 -41.16226361 42.78291739 -41.17016602 40.8894043 C-41.18169023 38.96843096 -41.20214902 37.04748975 -41.23168945 35.12670898 C-41.57672756 12.64525944 -41.57672756 12.64525944 -34.91015625 4.375 C-34.25917969 3.859375 -33.60820312 3.34375 -32.9375 2.8125 C-32.28910156 2.27625 -31.64070312 1.74 -30.97265625 1.1875 C-22.60118189 -4.29994688 -8.94049923 -4.24974403 0 0 Z " fill="#34AFE7" transform="translate(185.875,136.1875)"/>
<path d="M0 0 C1.53515625 1.0390625 1.53515625 1.0390625 3.97265625 3.1640625 C5.79250542 4.53232163 5.79250542 4.53232163 7.97265625 5.1640625 C10.3101079 4.35216203 10.3101079 4.35216203 12.53515625 2.8515625 C18.96861667 -1.1083246 24.48061157 -1.54142181 31.97265625 -0.8359375 C36.63091281 1.36614742 40.31967349 4.71059004 42.97265625 9.1640625 C45.53247857 17.5153305 45.22841895 25.92771975 45.16796875 34.57421875 C45.16423217 36.15319132 45.16138825 37.73216623 45.15939331 39.31114197 C45.15180755 43.43914345 45.13220336 47.56700109 45.10998535 51.69494629 C45.08941713 55.91835587 45.08036826 60.141789 45.0703125 64.36523438 C45.04895197 72.63158333 45.01381192 80.89778837 44.97265625 89.1640625 C36.72265625 89.1640625 28.47265625 89.1640625 19.97265625 89.1640625 C19.64265625 66.3940625 19.31265625 43.6240625 18.97265625 20.1640625 C16.00265625 20.4940625 13.03265625 20.8240625 9.97265625 21.1640625 C9.97265625 43.6040625 9.97265625 66.0440625 9.97265625 89.1640625 C2.05265625 89.1640625 -5.86734375 89.1640625 -14.02734375 89.1640625 C-14.35734375 66.3940625 -14.68734375 43.6240625 -15.02734375 20.1640625 C-20.50559456 19.7168489 -20.50559456 19.7168489 -23.02734375 21.1640625 C-23.35734375 43.6040625 -23.68734375 66.0440625 -24.02734375 89.1640625 C-32.27734375 89.1640625 -40.52734375 89.1640625 -49.02734375 89.1640625 C-49.02734375 60.1240625 -49.02734375 31.0840625 -49.02734375 1.1640625 C-40.77734375 1.1640625 -32.52734375 1.1640625 -24.02734375 1.1640625 C-23.69734375 1.8240625 -23.36734375 2.4840625 -23.02734375 3.1640625 C-21.97546875 2.5040625 -20.92359375 1.8440625 -19.83984375 1.1640625 C-13.9527465 -1.77423916 -6.18244178 -2.54921492 0 0 Z M-25.02734375 8.1640625 C-25.35734375 9.1540625 -25.68734375 10.1440625 -26.02734375 11.1640625 C-26.68734375 11.1640625 -27.34734375 11.1640625 -28.02734375 11.1640625 C-28.02734375 8.8540625 -28.02734375 6.5440625 -28.02734375 4.1640625 C-33.96734375 4.1640625 -39.90734375 4.1640625 -46.02734375 4.1640625 C-46.02734375 31.2240625 -46.02734375 58.2840625 -46.02734375 86.1640625 C-39.75734375 86.1640625 -33.48734375 86.1640625 -27.02734375 86.1640625 C-26.69734375 64.0540625 -26.36734375 41.9440625 -26.02734375 19.1640625 C-19.13845486 15.71961806 -19.13845486 15.71961806 -15.02734375 16.1640625 C-13.54234375 16.6590625 -13.54234375 16.6590625 -12.02734375 17.1640625 C-11.69734375 39.9340625 -11.36734375 62.7040625 -11.02734375 86.1640625 C-5.08734375 86.1640625 0.85265625 86.1640625 6.97265625 86.1640625 C6.97152832 84.18567383 6.97040039 82.20728516 6.96923828 80.16894531 C6.97250921 73.63081019 7.0033281 67.09325857 7.05293465 60.55531693 C7.08200256 56.59140584 7.10002234 52.62808674 7.09277344 48.6640625 C7.08618384 44.83809886 7.1086413 41.01330539 7.15121078 37.18758392 C7.16234905 35.72840287 7.16303544 34.26910324 7.15307999 32.80991364 C7.14091243 30.76423232 7.16596336 28.72212599 7.19970703 26.67675781 C7.20636887 24.93135712 7.20636887 24.93135712 7.21316528 23.1506958 C7.97265625 20.1640625 7.97265625 20.1640625 10.81784058 17.78045654 C14.25388966 16.0199704 16.17140893 15.64571059 19.97265625 16.1640625 C22.76775975 18.959166 22.24814268 20.71633656 22.29150391 24.63330078 C22.30154953 25.29683563 22.31159515 25.96037048 22.32194519 26.64401245 C22.35287613 28.84079102 22.36983937 31.03744719 22.38671875 33.234375 C22.40542248 34.75610413 22.42499529 36.27782281 22.44540405 37.79953003 C22.49681549 41.80749355 22.53639274 45.81549073 22.57354736 49.8236084 C22.61353073 53.91243884 22.66464884 58.00112818 22.71484375 62.08984375 C22.81170973 70.11449426 22.89505127 78.13920258 22.97265625 86.1640625 C29.24265625 86.1640625 35.51265625 86.1640625 41.97265625 86.1640625 C42.0860218 77.20992784 42.17758057 68.25627676 42.23171711 59.30158424 C42.25771177 55.14267751 42.29292142 50.984291 42.34985352 46.82568359 C42.4045392 42.8055962 42.43415281 38.78600632 42.44704247 34.76557541 C42.45621736 33.23866325 42.4741328 31.71177557 42.50130653 30.18507767 C42.65347168 21.27434496 42.37844301 13.64176451 36.97265625 6.1640625 C32.61630374 2.42607582 28.49057111 2.72052089 22.97265625 2.8828125 C15.25776066 3.60608396 10.4647672 6.86074286 4.97265625 12.1640625 C4.84761719 11.54917969 4.72257812 10.93429688 4.59375 10.30078125 C3.75578016 7.41795419 2.19959145 6.12106616 -0.02734375 4.1640625 C-7.66761563 0.34392656 -18.78331401 2.66373854 -25.02734375 8.1640625 Z " fill="#0C0C20" transform="translate(321.02734375,130.8359375)"/>
<path d="M0 0 C6.03021019 3.68225528 9.50805815 8.86267801 11.69921875 15.5703125 C13.64380254 25.81059776 11.91272849 37.47356353 11.125 47.8125 C5.185 47.8125 -0.755 47.8125 -6.875 47.8125 C-6.91238281 45.63269531 -6.94976562 43.45289063 -6.98828125 41.20703125 C-7.03455248 39.08543115 -7.08576546 36.96400358 -7.13745117 34.8425293 C-7.17061259 33.37323578 -7.19867178 31.90381756 -7.22143555 30.43432617 C-7.25514519 28.31635632 -7.30746433 26.19952005 -7.36328125 24.08203125 C-7.38946533 22.80948486 -7.41564941 21.53693848 -7.44262695 20.22583008 C-7.90174731 16.60134575 -8.58477725 14.64304162 -10.875 11.8125 C-14.375 10.97916667 -14.375 10.97916667 -17.875 11.8125 C-21.06072024 15.7498086 -21.28461605 19.11983996 -21.38671875 24.08203125 C-21.40466995 24.76303391 -21.42262115 25.44403656 -21.44111633 26.14567566 C-21.49498631 28.3053888 -21.52903782 30.46488399 -21.5625 32.625 C-21.59569391 34.09573331 -21.63018549 35.56643793 -21.66601562 37.03710938 C-21.75312698 40.62893348 -21.81338636 44.21978734 -21.875 47.8125 C-28.145 47.8125 -34.415 47.8125 -40.875 47.8125 C-40.96757866 43.5795978 -41.04697032 39.35030123 -41.09472656 35.1171875 C-41.11466189 33.68184413 -41.14182074 32.24658003 -41.17675781 30.81152344 C-41.4070059 21.10047184 -41.29042531 12.29008527 -34.91015625 4.375 C-34.25917969 3.859375 -33.60820312 3.34375 -32.9375 2.8125 C-32.28910156 2.27625 -31.64070312 1.74 -30.97265625 1.1875 C-22.60118189 -4.29994688 -8.94049923 -4.24974403 0 0 Z " fill="#D363AF" transform="translate(185.875,136.1875)"/>
<path d="M0 0 C0.33 0 0.66 0 1 0 C1.03738281 1.24136719 1.07476562 2.48273438 1.11328125 3.76171875 C1.1789595 5.40367511 1.2454062 7.04560087 1.3125 8.6875 C1.33505859 9.50412109 1.35761719 10.32074219 1.38085938 11.16210938 C1.58858684 15.82653512 1.87308997 19.27890279 5 23 C8 23.83333333 8 23.83333333 11 23 C14.44844987 18.60025361 15.15206032 14.26548435 15.5625 8.8125 C15.706875 6.894375 15.85125 4.97625 16 3 C21.94 3 27.88 3 34 3 C34.53481072 22.96626698 34.53481072 22.96626698 26.67578125 31.52734375 C20.31564095 37.11655795 11.42446021 37.4271715 3.359375 37.3359375 C-2.76961695 36.72303831 -7.50869738 34.47576435 -11.87890625 30.1328125 C-18.64813134 21.74876021 -18.19806415 13.39836786 -18 3 C-12.06 3 -6.12 3 0 3 C0 2.01 0 1.02 0 0 Z " fill="#33AEE5" transform="translate(225,181)"/>
<path d="M0 0 C3.6875 0.4375 3.6875 0.4375 5.88696289 2.82617188 C8.52816063 7.18318304 8.24321148 11.69678204 8.18359375 16.65625 C8.18504898 17.63235229 8.18650421 18.60845459 8.18800354 19.61413574 C8.18634836 21.67166132 8.17482989 23.72919976 8.15405273 25.78662109 C8.12509409 28.92729546 8.13345324 32.06628065 8.14648438 35.20703125 C8.14024642 37.21094566 8.13185504 39.21485477 8.12109375 41.21875 C8.12402939 42.15328003 8.12696503 43.08781006 8.12998962 44.05065918 C8.05530918 49.23838528 7.63238609 52.97045201 4.6875 57.4375 C1.85866253 58.85191874 -0.18626745 58.75650332 -3.3125 58.4375 C-6.65796676 55.09203324 -7.43317706 51.65312964 -7.47363281 47.04541016 C-7.48324036 46.16084137 -7.4928479 45.27627258 -7.50274658 44.36489868 C-7.50699646 43.41174774 -7.51124634 42.4585968 -7.515625 41.4765625 C-7.52132507 40.49384369 -7.52702515 39.51112488 -7.53289795 38.49862671 C-7.54234519 36.41901729 -7.54888083 34.33939293 -7.55273438 32.25976562 C-7.56244116 29.08176519 -7.59346786 25.90441118 -7.625 22.7265625 C-7.63153011 20.70573301 -7.63678055 18.68489889 -7.640625 16.6640625 C-7.6529718 15.71496002 -7.6653186 14.76585754 -7.67803955 13.78799438 C-7.6569544 7.52888884 -7.25448867 0.95814001 0 0 Z " fill="#0F0A1F" transform="translate(171.3125,146.5625)"/>
<path d="M0 0 C3.84572787 0.72107398 4.74944662 1.34627413 7 4.5625 C7.59866509 8.13120605 7.53611559 11.66628316 7.49609375 15.27734375 C7.49754898 16.32523575 7.49900421 17.37312775 7.50050354 18.45277405 C7.49884443 20.66768169 7.48728194 22.88260085 7.46655273 25.09741211 C7.43763609 28.48406088 7.44593676 31.86914064 7.45898438 35.25585938 C7.4527457 37.40886176 7.44435376 39.56185921 7.43359375 41.71484375 C7.43652939 42.72643051 7.43946503 43.73801727 7.44248962 44.78025818 C7.36786572 50.3558401 7.14967092 54.41282908 3 58.5625 C-2.35674677 59.02830407 -2.35674677 59.02830407 -4.8125 57.25 C-6.92770776 54.24417845 -7.13394897 51.54332327 -7.17700195 47.98681641 C-7.18983719 47.06220612 -7.20267242 46.13759583 -7.21589661 45.18496704 C-7.22328354 44.18806854 -7.23067047 43.19117004 -7.23828125 42.1640625 C-7.246353 41.1369516 -7.25442474 40.1098407 -7.26274109 39.05160522 C-7.27657323 36.8778451 -7.28729927 34.70406334 -7.29516602 32.53027344 C-7.31239751 29.20726455 -7.35629428 25.8852458 -7.40039062 22.5625 C-7.41051612 20.45052815 -7.41903267 18.33854784 -7.42578125 16.2265625 C-7.44328934 15.23371246 -7.46079742 14.24086243 -7.47883606 13.21792603 C-7.465084 8.84202568 -7.41266341 6.26511794 -5.16088867 2.43115234 C-3 0.5625 -3 0.5625 0 0 Z " fill="#0B071A" transform="translate(233,146.4375)"/>
<path d="M0 0 C15.67741935 0 15.67741935 0 20.25 3.9375 C23.63119753 7.9224828 23.24912127 12.33938213 23.3125 17.3125 C23.34150391 18.05951172 23.37050781 18.80652344 23.40039062 19.57617188 C23.46077547 24.86681317 22.48322982 27.79588196 19 32 C12.90512628 36.6883644 8.50402936 35 0 35 C0 23.45 0 11.9 0 0 Z " fill="#10081D" transform="translate(91,116)"/>
<path d="M0 0 C0.33 0 0.66 0 1 0 C1 23.1 1 46.2 1 70 C-5.27 70 -11.54 70 -18 70 C-18 58.45 -18 46.9 -18 35 C-17.67 35.99 -17.34 36.98 -17 38 C-11.39 38 -5.78 38 0 38 C0 25.46 0 12.92 0 0 Z " fill="#539BE0" transform="translate(362,147)"/>
<path d="M0 0 C0.33 0 0.66 0 1 0 C1 21.78 1 43.56 1 66 C-5.27 66 -11.54 66 -18 66 C-18 53.46 -18 40.92 -18 28 C-17.67 28 -17.34 28 -17 28 C-17 29.98 -17 31.96 -17 34 C-11.39 34 -5.78 34 0 34 C0 22.78 0 11.56 0 0 Z " fill="#549CE1" transform="translate(293,151)"/>
<path d="M0 0 C5.94 0 11.88 0 18 0 C18 10.56 18 21.12 18 32 C12.06 32 6.12 32 0 32 C0 21.44 0 10.88 0 0 Z " fill="#55A3EA" transform="translate(310,185)"/>
<path d="M0 0 C0.33 0 0.66 0 1 0 C1.08751499 4.52071021 1.1405661 9.0412007 1.1875 13.5625 C1.21263672 14.83931641 1.23777344 16.11613281 1.26367188 17.43164062 C1.27333984 18.67236328 1.28300781 19.91308594 1.29296875 21.19140625 C1.3086792 22.32779541 1.32438965 23.46418457 1.34057617 24.63500977 C1 28 1 28 -2 35 C-7.94 35 -13.88 35 -20 35 C-19.34 28.4 -18.68 21.8 -18 15 C-12.06 15 -6.12 15 0 15 C0 10.05 0 5.1 0 0 Z " fill="#7890E8" transform="translate(197,169)"/>
<path d="M0 0 C0.33 0 0.66 0 1 0 C1.04898438 1.24136719 1.09796875 2.48273438 1.1484375 3.76171875 C1.22349799 5.40366694 1.29904439 7.04559297 1.375 8.6875 C1.4059375 9.50412109 1.436875 10.32074219 1.46875 11.16210938 C1.50742188 11.95810547 1.54609375 12.75410156 1.5859375 13.57421875 C1.63306885 14.66609497 1.63306885 14.66609497 1.68115234 15.7800293 C1.98877693 18.5413538 1.98877693 18.5413538 4 23 C-2.6 23 -9.2 23 -16 23 C-18.39423999 15.81728002 -18.14221368 10.53732479 -18 3 C-12.06 3 -6.12 3 0 3 C0 2.01 0 1.02 0 0 Z " fill="#7692E9" transform="translate(225,181)"/>
<path d="M0 0 C6.27 0 12.54 0 19 0 C19.22786458 3.45052083 19.45572917 6.90104167 19.68359375 10.3515625 C19.96404145 13.58536682 20.46637038 16.79822226 21 20 C14.73 20 8.46 20 2 20 C0.31347361 12.41063123 -0.18952157 7.48610204 0 0 Z " fill="#7793EA" transform="translate(145,184)"/>
<path d="M0 0 C5.94 0 11.88 0 18 0 C18.04125 2.371875 18.0825 4.74375 18.125 7.1875 C18.14320801 7.92508545 18.16141602 8.6626709 18.18017578 9.42260742 C18.21622816 13.7285409 17.66424619 15.83938452 16 20 C10.06 20 4.12 20 -2 20 C-1.34 13.4 -0.68 6.8 0 0 Z " fill="#7793EA" transform="translate(241,184)"/>
<path d="M0 0 C0.99 0.33 1.98 0.66 3 1 C3 2.98 3 4.96 3 7 C5.31 7 7.62 7 10 7 C10 4.69 10 2.38 10 0 C10.99 0 11.98 0 13 0 C13 5.94 13 11.88 13 18 C12.01 18 11.02 18 10 18 C10 15.36 10 12.72 10 10 C7.69 10 5.38 10 3 10 C3 12.64 3 15.28 3 18 C2.01 18 1.02 18 0 18 C0 12.06 0 6.12 0 0 Z " fill="#855390" transform="translate(207,264)"/>
<path d="M0 0 C1.32 0 2.64 0 4 0 C4.83919398 2.26882087 5.67151724 4.53977027 6.5 6.8125 C6.73847656 7.45509766 6.97695312 8.09769531 7.22265625 8.75976562 C8.27068746 11.64933739 9 13.90076061 9 17 C8.01 17 7.02 17 6 17 C6 15.35 6 13.7 6 12 C3.69 12 1.38 12 -1 12 C-1.66 13.65 -2.32 15.3 -3 17 C-3.66 17 -4.32 17 -5 17 C-1.92482916 5.47835991 -1.92482916 5.47835991 0 0 Z " fill="#6574BE" transform="translate(227,265)"/>
<path d="M0 0 C-0.33 0.99 -0.66 1.98 -1 3 C-1.78375 2.835 -2.5675 2.67 -3.375 2.5 C-5.88208039 1.9376293 -5.88208039 1.9376293 -8 2 C-8 5.63 -8 9.26 -8 13 C-7.071875 13.144375 -6.14375 13.28875 -5.1875 13.4375 C-2 14 -2 14 1 15 C-2 17 -2 17 -5.5 16.9375 C-9 16 -9 16 -10.9375 13.8125 C-12.43495037 9.84866078 -12.63503244 6.75855138 -11.1875 2.75 C-8.0353086 -1.8953347 -4.94397835 -0.9328261 0 0 Z " fill="#9A61B1" transform="translate(203,265)"/>
<path d="M0 0 C1.32 0 2.64 0 4 0 C4.66 2.31 5.32 4.62 6 7 C5.34 7 4.68 7 4 7 C4 7.99 4 8.98 4 10 C2.68 10 1.36 10 0 10 C-1.125 3.375 -1.125 3.375 0 0 Z " fill="#BC5088" transform="translate(227,265)"/>
<path d="M0 0 C0.33 0.66 0.66 1.32 1 2 C3.97 2 6.94 2 10 2 C10 2.33 10 2.66 10 3 C7.69 3 5.38 3 3 3 C3 5.64 3 8.28 3 11 C2.01 11 1.02 11 0 11 C0 7.37 0 3.74 0 0 Z " fill="#5A64A8" transform="translate(207,271)"/>
<path d="M0 0 C7.625 0.875 7.625 0.875 11 2 C7.1496895 4.56687367 5.41430237 3.83288724 1 3 C0.67 2.01 0.34 1.02 0 0 Z " fill="#2F99CC" transform="translate(193,278)"/>
<path d="M0 0 C0.66 0 1.32 0 2 0 C2.33 2.31 2.66 4.62 3 7 C1.68 7 0.36 7 -1 7 C-0.67 4.69 -0.34 2.38 0 0 Z " fill="#211330" transform="translate(228,268)"/>
<path d="M0 0 C-0.33 0.99 -0.66 1.98 -1 3 C-4.02419525 2.41196203 -7.01758453 1.77321882 -10 1 C-6.1496895 -1.56687367 -4.41430237 -0.83288724 0 0 Z " fill="#CA4864" transform="translate(203,265)"/>
</svg>
